<?xml version="1.0" encoding="UTF-8" standalone="no"?>
<!DOCTYPE svg PUBLIC "-//W3C//DTD SVG 1.1//EN"
 "http://www.w3.org/Graphics/SVG/1.1/DTD/svg11.dtd">
<!-- Generated by graphviz version 2.28.0 (20120201.1532)
 -->
<!-- Title: classes_Pixie Pages: 1 -->
<svg width="3723pt" height="1036pt"
 viewBox="0.00 0.00 3723.00 1036.00" xmlns="http://www.w3.org/2000/svg" xmlns:xlink="http://www.w3.org/1999/xlink">
<g id="graph1" class="graph" transform="scale(1 1) rotate(0) translate(4 1032)">
<title>classes_Pixie</title>
<polygon fill="white" stroke="white" points="-4,5 -4,-1032 3720,-1032 3720,5 -4,5"/>
<!-- 7 -->
<g id="node1" class="node"><title>7</title>
<polygon fill="none" stroke="black" points="0,-9 0,-193 150,-193 150,-9 0,-9"/>
<text text-anchor="middle" x="75" y="-176.4" font-family="Times,serif" font-size="14.00">PuckTest</text>
<polyline fill="none" stroke="black" points="0,-169 150,-169 "/>
<polyline fill="none" stroke="black" points="0,-145 150,-145 "/>
<text text-anchor="start" x="8" y="-128.4" font-family="Times,serif" font-size="14.00">test_GetJails()</text>
<text text-anchor="start" x="8" y="-112.4" font-family="Times,serif" font-size="14.00">testGetVM()</text>
<text text-anchor="start" x="8" y="-96.4" font-family="Times,serif" font-size="14.00">test_GetRegistration()</text>
<text text-anchor="start" x="8" y="-80.4" font-family="Times,serif" font-size="14.00">test_GetYumRepo()</text>
<text text-anchor="start" x="8" y="-64.4" font-family="Times,serif" font-size="14.00">test_loadRegistration()</text>
<text text-anchor="start" x="8" y="-48.4" font-family="Times,serif" font-size="14.00">testInit()</text>
<text text-anchor="start" x="8" y="-32.4" font-family="Times,serif" font-size="14.00">test_GetEnvironments()</text>
<text text-anchor="start" x="8" y="-16.4" font-family="Times,serif" font-size="14.00">test_GetKeys()</text>
</g>
<!-- 11 -->
<g id="node2" class="node"><title>11</title>
<polygon fill="none" stroke="black" points="281.5,-629 281.5,-701 354.5,-701 354.5,-629 281.5,-629"/>
<text text-anchor="middle" x="318" y="-684.4" font-family="Times,serif" font-size="14.00">Controller</text>
<polyline fill="none" stroke="black" points="281.5,-677 354.5,-677 "/>
<text text-anchor="start" x="289.5" y="-660.4" font-family="Times,serif" font-size="14.00">lookup</text>
<polyline fill="none" stroke="black" points="281.5,-653 354.5,-653 "/>
<text text-anchor="start" x="289.5" y="-636.4" font-family="Times,serif" font-size="14.00">render()</text>
</g>
<!-- 14 -->
<g id="node3" class="node"><title>14</title>
<polygon fill="none" stroke="black" points="463.5,-65 463.5,-137 542.5,-137 542.5,-65 463.5,-65"/>
<text text-anchor="middle" x="503" y="-120.4" font-family="Times,serif" font-size="14.00">EZJailTask</text>
<polyline fill="none" stroke="black" points="463.5,-113 542.5,-113 "/>
<polyline fill="none" stroke="black" points="463.5,-89 542.5,-89 "/>
<text text-anchor="start" x="471.5" y="-72.4" font-family="Times,serif" font-size="14.00">run()</text>
</g>
<!-- 16 -->
<g id="node5" class="node"><title>16</title>
<polygon fill="none" stroke="black" points="720.5,-319 720.5,-423 795.5,-423 795.5,-319 720.5,-319"/>
<text text-anchor="middle" x="758" y="-406.4" font-family="Times,serif" font-size="14.00">SetupTask</text>
<polyline fill="none" stroke="black" points="720.5,-399 795.5,-399 "/>
<text text-anchor="start" x="728.5" y="-382.4" font-family="Times,serif" font-size="14.00">queue</text>
<text text-anchor="start" x="728.5" y="-366.4" font-family="Times,serif" font-size="14.00">vm</text>
<polyline fill="none" stroke="black" points="720.5,-359 795.5,-359 "/>
<text text-anchor="start" x="728.5" y="-342.4" font-family="Times,serif" font-size="14.00">run()</text>
<text text-anchor="start" x="728.5" y="-326.4" font-family="Times,serif" font-size="14.00">log()</text>
</g>
<!-- 14&#45;&gt;16 -->
<g id="edge2" class="edge"><title>14&#45;&gt;16</title>
<path fill="none" stroke="black" d="M515.354,-137.018C523.539,-157.262 535.607,-182.502 551,-202 563.506,-217.841 655.063,-290.085 712.146,-334.519"/>
<polygon fill="none" stroke="black" points="710.261,-337.487 720.304,-340.863 714.559,-331.961 710.261,-337.487"/>
</g>
<!-- 19 -->
<g id="node8" class="node"><title>19</title>
<polygon fill="none" stroke="black" points="528,-335 528,-407 600,-407 600,-335 528,-335"/>
<text text-anchor="middle" x="564" y="-390.4" font-family="Times,serif" font-size="14.00">RcReader</text>
<polyline fill="none" stroke="black" points="528,-383 600,-383 "/>
<polyline fill="none" stroke="black" points="528,-359 600,-359 "/>
<text text-anchor="middle" x="564" y="-342.4" font-family="Times,serif" font-size="14.00"> </text>
</g>
<!-- 14&#45;&gt;19 -->
<g id="edge4" class="edge"><title>14&#45;&gt;19</title>
<path fill="none" stroke="black" d="M510.975,-137.036C521.957,-185.289 541.745,-272.222 553.794,-325.162"/>
<polygon fill="none" stroke="black" points="550.391,-325.981 556.023,-334.955 557.217,-324.428 550.391,-325.981"/>
</g>
<!-- 15 -->
<g id="node4" class="node"><title>15</title>
<polygon fill="none" stroke="black" points="1077,-49 1077,-153 1207,-153 1207,-49 1077,-49"/>
<text text-anchor="middle" x="1142" y="-136.4" font-family="Times,serif" font-size="14.00">SetupWorkerThread</text>
<polyline fill="none" stroke="black" points="1077,-129 1207,-129 "/>
<text text-anchor="start" x="1085" y="-112.4" font-family="Times,serif" font-size="14.00">successful : bool</text>
<polyline fill="none" stroke="black" points="1077,-105 1207,-105 "/>
<text text-anchor="start" x="1085" y="-88.4" font-family="Times,serif" font-size="14.00">run()</text>
<text text-anchor="start" x="1085" y="-72.4" font-family="Times,serif" font-size="14.00">stop()</text>
<text text-anchor="start" x="1085" y="-56.4" font-family="Times,serif" font-size="14.00">stopped()</text>
</g>
<!-- 22 -->
<g id="node11" class="node"><title>22</title>
<polygon fill="none" stroke="black" points="1079,-303 1079,-439 1205,-439 1205,-303 1079,-303"/>
<text text-anchor="middle" x="1142" y="-422.4" font-family="Times,serif" font-size="14.00">SetupPlugin</text>
<polyline fill="none" stroke="black" points="1079,-415 1205,-415 "/>
<text text-anchor="start" x="1087" y="-398.4" font-family="Times,serif" font-size="14.00">worker : NoneType</text>
<text text-anchor="start" x="1087" y="-382.4" font-family="Times,serif" font-size="14.00">freq : float</text>
<text text-anchor="start" x="1087" y="-366.4" font-family="Times,serif" font-size="14.00">statuses : list</text>
<polyline fill="none" stroke="black" points="1079,-359 1205,-359 "/>
<text text-anchor="start" x="1087" y="-342.4" font-family="Times,serif" font-size="14.00">stop()</text>
<text text-anchor="start" x="1087" y="-326.4" font-family="Times,serif" font-size="14.00">start()</text>
<text text-anchor="start" x="1087" y="-310.4" font-family="Times,serif" font-size="14.00">switch()</text>
</g>
<!-- 15&#45;&gt;22 -->
<g id="edge22" class="edge"><title>15&#45;&gt;22</title>
<path fill="none" stroke="black" d="M1142,-153.04C1142,-191.909 1142,-246.132 1142,-290.646"/>
<polygon fill="black" stroke="black" points="1142,-290.923 1146,-296.923 1142,-302.923 1138,-296.923 1142,-290.923"/>
<text text-anchor="middle" x="1162" y="-223.4" font-family="Times,serif" font-size="14.00" fill="green">worker</text>
</g>
<!-- 17 -->
<g id="node6" class="node"><title>17</title>
<polygon fill="none" stroke="black" points="826.5,-65 826.5,-137 937.5,-137 937.5,-65 826.5,-65"/>
<text text-anchor="middle" x="882" y="-120.4" font-family="Times,serif" font-size="14.00">EZJailSetupTask</text>
<polyline fill="none" stroke="black" points="826.5,-113 937.5,-113 "/>
<polyline fill="none" stroke="black" points="826.5,-89 937.5,-89 "/>
<text text-anchor="start" x="834.5" y="-72.4" font-family="Times,serif" font-size="14.00">run()</text>
</g>
<!-- 17&#45;&gt;16 -->
<g id="edge6" class="edge"><title>17&#45;&gt;16</title>
<path fill="none" stroke="black" d="M865.789,-137.036C845.538,-180.804 810.562,-256.399 785.955,-309.581"/>
<polygon fill="none" stroke="black" points="782.663,-308.361 781.64,-318.906 789.016,-311.3 782.663,-308.361"/>
</g>
<!-- 18 -->
<g id="node7" class="node"><title>18</title>
<polygon fill="none" stroke="black" points="955.5,-65 955.5,-137 1058.5,-137 1058.5,-65 955.5,-65"/>
<text text-anchor="middle" x="1007" y="-120.4" font-family="Times,serif" font-size="14.00">JailStartupTask</text>
<polyline fill="none" stroke="black" points="955.5,-113 1058.5,-113 "/>
<polyline fill="none" stroke="black" points="955.5,-89 1058.5,-89 "/>
<text text-anchor="start" x="963.5" y="-72.4" font-family="Times,serif" font-size="14.00">run()</text>
</g>
<!-- 18&#45;&gt;16 -->
<g id="edge8" class="edge"><title>18&#45;&gt;16</title>
<path fill="none" stroke="black" d="M988.997,-137.001C977.912,-157.001 962.662,-182.001 946,-202 903.011,-253.598 844.022,-303.693 803.653,-335.552"/>
<polygon fill="none" stroke="black" points="801.3,-332.95 795.586,-341.872 805.616,-338.46 801.3,-332.95"/>
</g>
<!-- 20 -->
<g id="node9" class="node"><title>20</title>
<polygon fill="none" stroke="black" points="560.5,-65 560.5,-137 689.5,-137 689.5,-65 560.5,-65"/>
<text text-anchor="middle" x="625" y="-120.4" font-family="Times,serif" font-size="14.00">InterfacesSetupTask</text>
<polyline fill="none" stroke="black" points="560.5,-113 689.5,-113 "/>
<polyline fill="none" stroke="black" points="560.5,-89 689.5,-89 "/>
<text text-anchor="start" x="568.5" y="-72.4" font-family="Times,serif" font-size="14.00">run()</text>
</g>
<!-- 20&#45;&gt;16 -->
<g id="edge10" class="edge"><title>20&#45;&gt;16</title>
<path fill="none" stroke="black" d="M642.387,-137.036C664.153,-180.895 701.779,-256.712 728.18,-309.911"/>
<polygon fill="none" stroke="black" points="725.063,-311.504 732.644,-318.906 731.333,-308.393 725.063,-311.504"/>
</g>
<!-- 20&#45;&gt;19 -->
<g id="edge12" class="edge"><title>20&#45;&gt;19</title>
<path fill="none" stroke="black" d="M617.025,-137.036C606.043,-185.289 586.255,-272.222 574.206,-325.162"/>
<polygon fill="none" stroke="black" points="570.783,-324.428 571.977,-334.955 577.609,-325.981 570.783,-324.428"/>
</g>
<!-- 21 -->
<g id="node10" class="node"><title>21</title>
<polygon fill="none" stroke="black" points="708,-65 708,-137 808,-137 808,-65 708,-65"/>
<text text-anchor="middle" x="758" y="-120.4" font-family="Times,serif" font-size="14.00">JailConfigTask</text>
<polyline fill="none" stroke="black" points="708,-113 808,-113 "/>
<polyline fill="none" stroke="black" points="708,-89 808,-89 "/>
<text text-anchor="start" x="716" y="-72.4" font-family="Times,serif" font-size="14.00">run()</text>
</g>
<!-- 21&#45;&gt;16 -->
<g id="edge14" class="edge"><title>21&#45;&gt;16</title>
<path fill="none" stroke="black" d="M758,-137.036C758,-180.533 758,-255.461 758,-308.587"/>
<polygon fill="none" stroke="black" points="754.5,-308.906 758,-318.906 761.5,-308.906 754.5,-308.906"/>
</g>
<!-- 24 -->
<g id="node12" class="node"><title>24</title>
<polygon fill="none" stroke="black" points="1225.5,-57 1225.5,-145 1322.5,-145 1322.5,-57 1225.5,-57"/>
<text text-anchor="middle" x="1274" y="-128.4" font-family="Times,serif" font-size="14.00">NetInterfaces</text>
<polyline fill="none" stroke="black" points="1225.5,-121 1322.5,-121 "/>
<polyline fill="none" stroke="black" points="1225.5,-97 1322.5,-97 "/>
<text text-anchor="start" x="1233.5" y="-80.4" font-family="Times,serif" font-size="14.00">getInterfaces()</text>
<text text-anchor="start" x="1233.5" y="-64.4" font-family="Times,serif" font-size="14.00">getifaddrs()</text>
</g>
<!-- 25 -->
<g id="node13" class="node"><title>25</title>
<polygon fill="none" stroke="black" points="1340.5,-65 1340.5,-137 1407.5,-137 1407.5,-65 1340.5,-65"/>
<text text-anchor="middle" x="1374" y="-120.4" font-family="Times,serif" font-size="14.00">sockaddr</text>
<polyline fill="none" stroke="black" points="1340.5,-113 1407.5,-113 "/>
<polyline fill="none" stroke="black" points="1340.5,-89 1407.5,-89 "/>
<text text-anchor="middle" x="1374" y="-72.4" font-family="Times,serif" font-size="14.00"> </text>
</g>
<!-- 26 -->
<g id="node14" class="node"><title>26</title>
<polygon fill="none" stroke="black" points="1426,-65 1426,-137 1510,-137 1510,-65 1426,-65"/>
<text text-anchor="middle" x="1468" y="-120.4" font-family="Times,serif" font-size="14.00">sockaddr_in</text>
<polyline fill="none" stroke="black" points="1426,-113 1510,-113 "/>
<polyline fill="none" stroke="black" points="1426,-89 1510,-89 "/>
<text text-anchor="middle" x="1468" y="-72.4" font-family="Times,serif" font-size="14.00"> </text>
</g>
<!-- 27 -->
<g id="node15" class="node"><title>27</title>
<polygon fill="none" stroke="black" points="1528,-65 1528,-137 1582,-137 1582,-65 1528,-65"/>
<text text-anchor="middle" x="1555" y="-120.4" font-family="Times,serif" font-size="14.00">in6_u</text>
<polyline fill="none" stroke="black" points="1528,-113 1582,-113 "/>
<polyline fill="none" stroke="black" points="1528,-89 1582,-89 "/>
<text text-anchor="middle" x="1555" y="-72.4" font-family="Times,serif" font-size="14.00"> </text>
</g>
<!-- 28 -->
<g id="node16" class="node"><title>28</title>
<polygon fill="none" stroke="black" points="1600,-65 1600,-137 1654,-137 1654,-65 1600,-65"/>
<text text-anchor="middle" x="1627" y="-120.4" font-family="Times,serif" font-size="14.00">ifaddrs</text>
<polyline fill="none" stroke="black" points="1600,-113 1654,-113 "/>
<polyline fill="none" stroke="black" points="1600,-89 1654,-89 "/>
<text text-anchor="middle" x="1627" y="-72.4" font-family="Times,serif" font-size="14.00"> </text>
</g>
<!-- 29 -->
<g id="node17" class="node"><title>29</title>
<polygon fill="none" stroke="black" points="1672.5,-65 1672.5,-137 1731.5,-137 1731.5,-65 1672.5,-65"/>
<text text-anchor="middle" x="1702" y="-120.4" font-family="Times,serif" font-size="14.00">in_addr</text>
<polyline fill="none" stroke="black" points="1672.5,-113 1731.5,-113 "/>
<polyline fill="none" stroke="black" points="1672.5,-89 1731.5,-89 "/>
<text text-anchor="middle" x="1702" y="-72.4" font-family="Times,serif" font-size="14.00"> </text>
</g>
<!-- 30 -->
<g id="node18" class="node"><title>30</title>
<polygon fill="none" stroke="black" points="1749.5,-65 1749.5,-137 1830.5,-137 1830.5,-65 1749.5,-65"/>
<text text-anchor="middle" x="1790" y="-120.4" font-family="Times,serif" font-size="14.00">sockaddr_ll</text>
<polyline fill="none" stroke="black" points="1749.5,-113 1830.5,-113 "/>
<polyline fill="none" stroke="black" points="1749.5,-89 1830.5,-89 "/>
<text text-anchor="middle" x="1790" y="-72.4" font-family="Times,serif" font-size="14.00"> </text>
</g>
<!-- 31 -->
<g id="node19" class="node"><title>31</title>
<polygon fill="none" stroke="black" points="1849,-65 1849,-137 1915,-137 1915,-65 1849,-65"/>
<text text-anchor="middle" x="1882" y="-120.4" font-family="Times,serif" font-size="14.00">in6_addr</text>
<polyline fill="none" stroke="black" points="1849,-113 1915,-113 "/>
<polyline fill="none" stroke="black" points="1849,-89 1915,-89 "/>
<text text-anchor="middle" x="1882" y="-72.4" font-family="Times,serif" font-size="14.00"> </text>
</g>
<!-- 32 -->
<g id="node20" class="node"><title>32</title>
<polygon fill="none" stroke="black" points="1933,-65 1933,-137 2017,-137 2017,-65 1933,-65"/>
<text text-anchor="middle" x="1975" y="-120.4" font-family="Times,serif" font-size="14.00">sockaddr_dl</text>
<polyline fill="none" stroke="black" points="1933,-113 2017,-113 "/>
<polyline fill="none" stroke="black" points="1933,-89 2017,-89 "/>
<text text-anchor="middle" x="1975" y="-72.4" font-family="Times,serif" font-size="14.00"> </text>
</g>
<!-- 33 -->
<g id="node21" class="node"><title>33</title>
<polygon fill="none" stroke="black" points="2035.5,-65 2035.5,-137 2100.5,-137 2100.5,-65 2035.5,-65"/>
<text text-anchor="middle" x="2068" y="-120.4" font-family="Times,serif" font-size="14.00">ifa_ifu_u</text>
<polyline fill="none" stroke="black" points="2035.5,-113 2100.5,-113 "/>
<polyline fill="none" stroke="black" points="2035.5,-89 2100.5,-89 "/>
<text text-anchor="middle" x="2068" y="-72.4" font-family="Times,serif" font-size="14.00"> </text>
</g>
<!-- 34 -->
<g id="node22" class="node"><title>34</title>
<polygon fill="none" stroke="black" points="2118.5,-65 2118.5,-137 2209.5,-137 2209.5,-65 2118.5,-65"/>
<text text-anchor="middle" x="2164" y="-120.4" font-family="Times,serif" font-size="14.00">sockaddr_in6</text>
<polyline fill="none" stroke="black" points="2118.5,-113 2209.5,-113 "/>
<polyline fill="none" stroke="black" points="2118.5,-89 2209.5,-89 "/>
<text text-anchor="middle" x="2164" y="-72.4" font-family="Times,serif" font-size="14.00"> </text>
</g>
<!-- 37 -->
<g id="node23" class="node"><title>37</title>
<polygon fill="none" stroke="black" points="2271.5,-255 2271.5,-487 2350.5,-487 2350.5,-255 2271.5,-255"/>
<text text-anchor="middle" x="2311" y="-470.4" font-family="Times,serif" font-size="14.00">Jails</text>
<polyline fill="none" stroke="black" points="2271.5,-463 2350.5,-463 "/>
<polyline fill="none" stroke="black" points="2271.5,-439 2350.5,-439 "/>
<text text-anchor="start" x="2279.5" y="-422.4" font-family="Times,serif" font-size="14.00">count()</text>
<text text-anchor="start" x="2279.5" y="-406.4" font-family="Times,serif" font-size="14.00">load()</text>
<text text-anchor="start" x="2279.5" y="-390.4" font-family="Times,serif" font-size="14.00">get()</text>
<text text-anchor="start" x="2279.5" y="-374.4" font-family="Times,serif" font-size="14.00">create()</text>
<text text-anchor="start" x="2279.5" y="-358.4" font-family="Times,serif" font-size="14.00">status()</text>
<text text-anchor="start" x="2279.5" y="-342.4" font-family="Times,serif" font-size="14.00">add()</text>
<text text-anchor="start" x="2279.5" y="-326.4" font-family="Times,serif" font-size="14.00">remove()</text>
<text text-anchor="start" x="2279.5" y="-310.4" font-family="Times,serif" font-size="14.00">clear()</text>
<text text-anchor="start" x="2279.5" y="-294.4" font-family="Times,serif" font-size="14.00">export()</text>
<text text-anchor="start" x="2279.5" y="-278.4" font-family="Times,serif" font-size="14.00">contain()</text>
<text text-anchor="start" x="2279.5" y="-262.4" font-family="Times,serif" font-size="14.00">setSocket()</text>
</g>
<!-- 47 -->
<g id="node30" class="node"><title>47</title>
<polygon fill="none" stroke="black" points="2222.5,-541 2222.5,-789 2399.5,-789 2399.5,-541 2222.5,-541"/>
<text text-anchor="middle" x="2311" y="-772.4" font-family="Times,serif" font-size="14.00">VM</text>
<polyline fill="none" stroke="black" points="2222.5,-765 2399.5,-765 "/>
<text text-anchor="start" x="2230.5" y="-748.4" font-family="Times,serif" font-size="14.00">status : str</text>
<text text-anchor="start" x="2230.5" y="-732.4" font-family="Times,serif" font-size="14.00">jails</text>
<text text-anchor="start" x="2230.5" y="-716.4" font-family="Times,serif" font-size="14.00">keys : dict</text>
<text text-anchor="start" x="2230.5" y="-700.4" font-family="Times,serif" font-size="14.00">interfaces : dict</text>
<text text-anchor="start" x="2230.5" y="-684.4" font-family="Times,serif" font-size="14.00">id : NoneType</text>
<text text-anchor="start" x="2230.5" y="-668.4" font-family="Times,serif" font-size="14.00">environment : NoneType</text>
<text text-anchor="start" x="2230.5" y="-652.4" font-family="Times,serif" font-size="14.00">interface : NoneType</text>
<text text-anchor="start" x="2230.5" y="-636.4" font-family="Times,serif" font-size="14.00">configured : bool, NoneType</text>
<polyline fill="none" stroke="black" points="2222.5,-629 2399.5,-629 "/>
<text text-anchor="start" x="2230.5" y="-612.4" font-family="Times,serif" font-size="14.00">getConfiguration()</text>
<text text-anchor="start" x="2230.5" y="-596.4" font-family="Times,serif" font-size="14.00">configurationValid()</text>
<text text-anchor="start" x="2230.5" y="-580.4" font-family="Times,serif" font-size="14.00">update()</text>
<text text-anchor="start" x="2230.5" y="-564.4" font-family="Times,serif" font-size="14.00">isConfigured()</text>
<text text-anchor="start" x="2230.5" y="-548.4" font-family="Times,serif" font-size="14.00">persist()</text>
</g>
<!-- 37&#45;&gt;47 -->
<g id="edge28" class="edge"><title>37&#45;&gt;47</title>
<path fill="none" stroke="black" d="M2311,-487.406C2311,-500.969 2311,-514.9 2311,-528.703"/>
<polygon fill="black" stroke="black" points="2311,-528.787 2315,-534.787 2311,-540.787 2307,-534.787 2311,-528.787"/>
<text text-anchor="middle" x="2323.5" y="-509.4" font-family="Times,serif" font-size="14.00" fill="green">jails</text>
</g>
<!-- 38 -->
<g id="node24" class="node"><title>38</title>
<polygon fill="none" stroke="black" points="2227.5,-17 2227.5,-185 2306.5,-185 2306.5,-17 2227.5,-17"/>
<text text-anchor="middle" x="2267" y="-168.4" font-family="Times,serif" font-size="14.00">EzJail</text>
<polyline fill="none" stroke="black" points="2227.5,-161 2306.5,-161 "/>
<text text-anchor="start" x="2235.5" y="-144.4" font-family="Times,serif" font-size="14.00">logs : list</text>
<polyline fill="none" stroke="black" points="2227.5,-137 2306.5,-137 "/>
<text text-anchor="start" x="2235.5" y="-120.4" font-family="Times,serif" font-size="14.00">status()</text>
<text text-anchor="start" x="2235.5" y="-104.4" font-family="Times,serif" font-size="14.00">setSocket()</text>
<text text-anchor="start" x="2235.5" y="-88.4" font-family="Times,serif" font-size="14.00">stop()</text>
<text text-anchor="start" x="2235.5" y="-72.4" font-family="Times,serif" font-size="14.00">start()</text>
<text text-anchor="start" x="2235.5" y="-56.4" font-family="Times,serif" font-size="14.00">install()</text>
<text text-anchor="start" x="2235.5" y="-40.4" font-family="Times,serif" font-size="14.00">create()</text>
<text text-anchor="start" x="2235.5" y="-24.4" font-family="Times,serif" font-size="14.00">delete()</text>
</g>
<!-- 38&#45;&gt;37 -->
<g id="edge24" class="edge"><title>38&#45;&gt;37</title>
<path fill="none" stroke="black" d="M2270.14,-185.196C2271.47,-202.077 2273.34,-219.66 2276,-236 2276.38,-238.314 2276.77,-240.646 2277.19,-242.991"/>
<polygon fill="black" stroke="black" points="2277.2,-243.019 2282.25,-248.166 2279.44,-254.808 2274.39,-249.661 2277.2,-243.019"/>
<text text-anchor="middle" x="2304.5" y="-223.4" font-family="Times,serif" font-size="14.00" fill="green">_manager</text>
</g>
<!-- 39 -->
<g id="node25" class="node"><title>39</title>
<polygon fill="none" stroke="black" points="2324.5,-25 2324.5,-177 2385.5,-177 2385.5,-25 2324.5,-25"/>
<text text-anchor="middle" x="2355" y="-160.4" font-family="Times,serif" font-size="14.00">Jail</text>
<polyline fill="none" stroke="black" points="2324.5,-153 2385.5,-153 "/>
<polyline fill="none" stroke="black" points="2324.5,-129 2385.5,-129 "/>
<text text-anchor="start" x="2332.5" y="-112.4" font-family="Times,serif" font-size="14.00">status()</text>
<text text-anchor="start" x="2332.5" y="-96.4" font-family="Times,serif" font-size="14.00">create()</text>
<text text-anchor="start" x="2332.5" y="-80.4" font-family="Times,serif" font-size="14.00">stop()</text>
<text text-anchor="start" x="2332.5" y="-64.4" font-family="Times,serif" font-size="14.00">start()</text>
<text text-anchor="start" x="2332.5" y="-48.4" font-family="Times,serif" font-size="14.00">export()</text>
<text text-anchor="start" x="2332.5" y="-32.4" font-family="Times,serif" font-size="14.00">delete()</text>
</g>
<!-- 39&#45;&gt;37 -->
<g id="edge26" class="edge"><title>39&#45;&gt;37</title>
<path fill="none" stroke="black" d="M2342.69,-177.009C2339.32,-197.486 2335.58,-220.259 2331.89,-242.776"/>
<polygon fill="black" stroke="black" points="2331.85,-243.035 2334.82,-249.604 2329.9,-254.877 2326.93,-248.308 2331.85,-243.035"/>
<text text-anchor="middle" x="2346.5" y="-223.4" font-family="Times,serif" font-size="14.00" fill="green">_jail</text>
</g>
<!-- 40 -->
<g id="node26" class="node"><title>40</title>
<polygon fill="none" stroke="black" points="2404,-65 2404,-137 2532,-137 2532,-65 2404,-65"/>
<text text-anchor="middle" x="2468" y="-120.4" font-family="Times,serif" font-size="14.00" fill="red">StopLoopException</text>
<polyline fill="none" stroke="black" points="2404,-113 2532,-113 "/>
<polyline fill="none" stroke="black" points="2404,-89 2532,-89 "/>
<text text-anchor="middle" x="2468" y="-72.4" font-family="Times,serif" font-size="14.00" fill="red"> </text>
</g>
<!-- 41 -->
<g id="node27" class="node"><title>41</title>
<polygon fill="none" stroke="black" points="2550.5,-49 2550.5,-153 2651.5,-153 2651.5,-49 2550.5,-49"/>
<text text-anchor="middle" x="2601" y="-136.4" font-family="Times,serif" font-size="14.00">EzJailStarter</text>
<polyline fill="none" stroke="black" points="2550.5,-129 2651.5,-129 "/>
<polyline fill="none" stroke="black" points="2550.5,-105 2651.5,-105 "/>
<text text-anchor="start" x="2558.5" y="-88.4" font-family="Times,serif" font-size="14.00">run()</text>
<text text-anchor="start" x="2558.5" y="-72.4" font-family="Times,serif" font-size="14.00">teardown()</text>
<text text-anchor="start" x="2558.5" y="-56.4" font-family="Times,serif" font-size="14.00">getSocketFile()</text>
</g>
<!-- 43 -->
<g id="node28" class="node"><title>43</title>
<polygon fill="none" stroke="black" points="168.5,-25 168.5,-177 317.5,-177 317.5,-25 168.5,-25"/>
<text text-anchor="middle" x="243" y="-160.4" font-family="Times,serif" font-size="14.00">ConfigurationController</text>
<polyline fill="none" stroke="black" points="168.5,-153 317.5,-153 "/>
<polyline fill="none" stroke="black" points="168.5,-129 317.5,-129 "/>
<text text-anchor="start" x="176.5" y="-112.4" font-family="Times,serif" font-size="14.00">jails()</text>
<text text-anchor="start" x="176.5" y="-96.4" font-family="Times,serif" font-size="14.00">index()</text>
<text text-anchor="start" x="176.5" y="-80.4" font-family="Times,serif" font-size="14.00">keys()</text>
<text text-anchor="start" x="176.5" y="-64.4" font-family="Times,serif" font-size="14.00">netiface()</text>
<text text-anchor="start" x="176.5" y="-48.4" font-family="Times,serif" font-size="14.00">environment()</text>
<text text-anchor="start" x="176.5" y="-32.4" font-family="Times,serif" font-size="14.00">save()</text>
</g>
<!-- 43&#45;&gt;11 -->
<g id="edge16" class="edge"><title>43&#45;&gt;11</title>
<path fill="none" stroke="black" d="M239.905,-177.053C238.119,-255.345 239.317,-381.312 259,-488 267.471,-533.915 285.25,-584.23 299.089,-619.258"/>
<polygon fill="none" stroke="black" points="295.91,-620.735 302.877,-628.717 302.409,-618.132 295.91,-620.735"/>
</g>
<!-- 64 -->
<g id="node41" class="node"><title>64</title>
<polygon fill="none" stroke="black" points="268,-327 268,-415 368,-415 368,-327 268,-327"/>
<text text-anchor="middle" x="318" y="-398.4" font-family="Times,serif" font-size="14.00">RootController</text>
<polyline fill="none" stroke="black" points="268,-391 368,-391 "/>
<text text-anchor="start" x="276" y="-374.4" font-family="Times,serif" font-size="14.00">setup</text>
<text text-anchor="start" x="276" y="-358.4" font-family="Times,serif" font-size="14.00">configure</text>
<polyline fill="none" stroke="black" points="268,-351 368,-351 "/>
<text text-anchor="start" x="276" y="-334.4" font-family="Times,serif" font-size="14.00">index()</text>
</g>
<!-- 43&#45;&gt;64 -->
<g id="edge34" class="edge"><title>43&#45;&gt;64</title>
<path fill="none" stroke="black" d="M263.991,-177.009C276.271,-220.888 291.501,-275.31 302.655,-315.165"/>
<polygon fill="black" stroke="black" points="302.67,-315.222 308.139,-319.922 305.904,-326.778 300.435,-322.078 302.67,-315.222"/>
<text text-anchor="middle" x="307.5" y="-223.4" font-family="Times,serif" font-size="14.00" fill="green">configure</text>
</g>
<!-- 45 -->
<g id="node29" class="node"><title>45</title>
<polygon fill="none" stroke="black" points="2669.5,-49 2669.5,-153 2786.5,-153 2786.5,-49 2669.5,-49"/>
<text text-anchor="middle" x="2728" y="-136.4" font-family="Times,serif" font-size="14.00">VMTest</text>
<polyline fill="none" stroke="black" points="2669.5,-129 2786.5,-129 "/>
<polyline fill="none" stroke="black" points="2669.5,-105 2786.5,-105 "/>
<text text-anchor="start" x="2677.5" y="-88.4" font-family="Times,serif" font-size="14.00">testInit()</text>
<text text-anchor="start" x="2677.5" y="-72.4" font-family="Times,serif" font-size="14.00">testIsConfigured()</text>
<text text-anchor="start" x="2677.5" y="-56.4" font-family="Times,serif" font-size="14.00">testUpdate()</text>
</g>
<!-- 54 -->
<g id="node35" class="node"><title>54</title>
<polygon fill="none" stroke="black" points="2251,-843 2251,-1027 2371,-1027 2371,-843 2251,-843"/>
<text text-anchor="middle" x="2311" y="-1010.4" font-family="Times,serif" font-size="14.00">Puck</text>
<polyline fill="none" stroke="black" points="2251,-1003 2371,-1003 "/>
<polyline fill="none" stroke="black" points="2251,-979 2371,-979 "/>
<text text-anchor="start" x="2259" y="-962.4" font-family="Times,serif" font-size="14.00">updateConfig()</text>
<text text-anchor="start" x="2259" y="-946.4" font-family="Times,serif" font-size="14.00">getVM()</text>
<text text-anchor="start" x="2259" y="-930.4" font-family="Times,serif" font-size="14.00">getYumRepo()</text>
<text text-anchor="start" x="2259" y="-914.4" font-family="Times,serif" font-size="14.00">register()</text>
<text text-anchor="start" x="2259" y="-898.4" font-family="Times,serif" font-size="14.00">getJails()</text>
<text text-anchor="start" x="2259" y="-882.4" font-family="Times,serif" font-size="14.00">getEnvironments()</text>
<text text-anchor="start" x="2259" y="-866.4" font-family="Times,serif" font-size="14.00">getKeys()</text>
<text text-anchor="start" x="2259" y="-850.4" font-family="Times,serif" font-size="14.00">updateStatus()</text>
</g>
<!-- 47&#45;&gt;54 -->
<g id="edge30" class="edge"><title>47&#45;&gt;54</title>
<path fill="none" stroke="black" d="M2311,-789.019C2311,-802.925 2311,-816.991 2311,-830.61"/>
<polygon fill="black" stroke="black" points="2311,-830.975 2315,-836.975 2311,-842.975 2307,-836.975 2311,-830.975"/>
<text text-anchor="middle" x="2324" y="-811.4" font-family="Times,serif" font-size="14.00" fill="green">_vm</text>
</g>
<!-- 49 -->
<g id="node31" class="node"><title>49</title>
<polygon fill="none" stroke="black" points="2804.5,-57 2804.5,-145 2893.5,-145 2893.5,-57 2804.5,-57"/>
<text text-anchor="middle" x="2849" y="-128.4" font-family="Times,serif" font-size="14.00">MockVM</text>
<polyline fill="none" stroke="black" points="2804.5,-121 2893.5,-121 "/>
<text text-anchor="start" x="2812.5" y="-104.4" font-family="Times,serif" font-size="14.00">interface : str</text>
<text text-anchor="start" x="2812.5" y="-88.4" font-family="Times,serif" font-size="14.00">jails : list</text>
<polyline fill="none" stroke="black" points="2804.5,-81 2893.5,-81 "/>
<text text-anchor="middle" x="2849" y="-64.4" font-family="Times,serif" font-size="14.00"> </text>
</g>
<!-- 50 -->
<g id="node32" class="node"><title>50</title>
<polygon fill="none" stroke="black" points="2912,-49 2912,-153 3082,-153 3082,-49 2912,-49"/>
<text text-anchor="middle" x="2997" y="-136.4" font-family="Times,serif" font-size="14.00">InterfacesSetupTaskTest</text>
<polyline fill="none" stroke="black" points="2912,-129 3082,-129 "/>
<polyline fill="none" stroke="black" points="2912,-105 3082,-105 "/>
<text text-anchor="start" x="2920" y="-88.4" font-family="Times,serif" font-size="14.00">test_get_missing_ip()</text>
<text text-anchor="start" x="2920" y="-72.4" font-family="Times,serif" font-size="14.00">test_add_rc_ip()</text>
<text text-anchor="start" x="2920" y="-56.4" font-family="Times,serif" font-size="14.00">test_calculate_alias_count()</text>
</g>
<!-- 51 -->
<g id="node33" class="node"><title>51</title>
<polygon fill="none" stroke="black" points="3100,-65 3100,-137 3168,-137 3168,-65 3100,-65"/>
<text text-anchor="middle" x="3134" y="-120.4" font-family="Times,serif" font-size="14.00">MockJail</text>
<polyline fill="none" stroke="black" points="3100,-113 3168,-113 "/>
<text text-anchor="start" x="3108" y="-96.4" font-family="Times,serif" font-size="14.00">ip</text>
<polyline fill="none" stroke="black" points="3100,-89 3168,-89 "/>
<text text-anchor="middle" x="3134" y="-72.4" font-family="Times,serif" font-size="14.00"> </text>
</g>
<!-- 52 -->
<g id="node34" class="node"><title>52</title>
<polygon fill="none" stroke="black" points="3186.5,-65 3186.5,-137 3263.5,-137 3263.5,-65 3186.5,-65"/>
<text text-anchor="middle" x="3225" y="-120.4" font-family="Times,serif" font-size="14.00">MockPuck</text>
<polyline fill="none" stroke="black" points="3186.5,-113 3263.5,-113 "/>
<polyline fill="none" stroke="black" points="3186.5,-89 3263.5,-89 "/>
<text text-anchor="start" x="3194.5" y="-72.4" font-family="Times,serif" font-size="14.00">getVM()</text>
</g>
<!-- 55 -->
<g id="node36" class="node"><title>55</title>
<polygon fill="none" stroke="black" points="3281.5,-49 3281.5,-153 3386.5,-153 3386.5,-49 3281.5,-49"/>
<text text-anchor="middle" x="3334" y="-136.4" font-family="Times,serif" font-size="14.00">JSONTransport</text>
<polyline fill="none" stroke="black" points="3281.5,-129 3386.5,-129 "/>
<polyline fill="none" stroke="black" points="3281.5,-105 3386.5,-105 "/>
<text text-anchor="start" x="3289.5" y="-88.4" font-family="Times,serif" font-size="14.00">get()</text>
<text text-anchor="start" x="3289.5" y="-72.4" font-family="Times,serif" font-size="14.00">put()</text>
<text text-anchor="start" x="3289.5" y="-56.4" font-family="Times,serif" font-size="14.00">post()</text>
</g>
<!-- 56 -->
<g id="node37" class="node"><title>56</title>
<polygon fill="none" stroke="black" points="3404.5,-49 3404.5,-153 3507.5,-153 3507.5,-49 3404.5,-49"/>
<text text-anchor="middle" x="3456" y="-136.4" font-family="Times,serif" font-size="14.00">MockTransport</text>
<polyline fill="none" stroke="black" points="3404.5,-129 3507.5,-129 "/>
<polyline fill="none" stroke="black" points="3404.5,-105 3507.5,-105 "/>
<text text-anchor="start" x="3412.5" y="-88.4" font-family="Times,serif" font-size="14.00">get()</text>
<text text-anchor="start" x="3412.5" y="-72.4" font-family="Times,serif" font-size="14.00">put()</text>
<text text-anchor="start" x="3412.5" y="-56.4" font-family="Times,serif" font-size="14.00">post()</text>
</g>
<!-- 58 -->
<g id="node38" class="node"><title>58</title>
<polygon fill="none" stroke="black" points="341,-41 341,-161 445,-161 445,-41 341,-41"/>
<text text-anchor="middle" x="393" y="-144.4" font-family="Times,serif" font-size="14.00">SetupController</text>
<polyline fill="none" stroke="black" points="341,-137 445,-137 "/>
<polyline fill="none" stroke="black" points="341,-113 445,-113 "/>
<text text-anchor="start" x="349" y="-96.4" font-family="Times,serif" font-size="14.00">status()</text>
<text text-anchor="start" x="349" y="-80.4" font-family="Times,serif" font-size="14.00">index()</text>
<text text-anchor="start" x="349" y="-64.4" font-family="Times,serif" font-size="14.00">start()</text>
<text text-anchor="start" x="349" y="-48.4" font-family="Times,serif" font-size="14.00">status_clear()</text>
</g>
<!-- 58&#45;&gt;11 -->
<g id="edge18" class="edge"><title>58&#45;&gt;11</title>
<path fill="none" stroke="black" d="M395.674,-161.101C397.957,-237.336 398.082,-373.727 377,-488 368.529,-533.915 350.75,-584.23 336.911,-619.258"/>
<polygon fill="none" stroke="black" points="333.591,-618.132 333.123,-628.717 340.09,-620.735 333.591,-618.132"/>
</g>
<!-- 58&#45;&gt;64 -->
<g id="edge32" class="edge"><title>58&#45;&gt;64</title>
<path fill="none" stroke="black" d="M371.049,-161.012C364.476,-179.733 357.548,-200.609 352,-220 343.099,-251.112 335.006,-286.382 328.951,-314.902"/>
<polygon fill="black" stroke="black" points="328.944,-314.934 331.629,-321.627 326.484,-326.679 323.799,-319.987 328.944,-314.934"/>
<text text-anchor="middle" x="367" y="-223.4" font-family="Times,serif" font-size="14.00" fill="green">setup</text>
</g>
<!-- 60 -->
<g id="node39" class="node"><title>60</title>
<polygon fill="none" stroke="black" points="3525.5,-57 3525.5,-145 3608.5,-145 3608.5,-57 3525.5,-57"/>
<text text-anchor="middle" x="3567" y="-128.4" font-family="Times,serif" font-size="14.00">JailTest</text>
<polyline fill="none" stroke="black" points="3525.5,-121 3608.5,-121 "/>
<polyline fill="none" stroke="black" points="3525.5,-97 3608.5,-97 "/>
<text text-anchor="start" x="3533.5" y="-80.4" font-family="Times,serif" font-size="14.00">testInit()</text>
<text text-anchor="start" x="3533.5" y="-64.4" font-family="Times,serif" font-size="14.00">testExport()</text>
</g>
<!-- 61 -->
<g id="node40" class="node"><title>61</title>
<polygon fill="none" stroke="black" points="3626.5,-1 3626.5,-201 3715.5,-201 3715.5,-1 3626.5,-1"/>
<text text-anchor="middle" x="3671" y="-184.4" font-family="Times,serif" font-size="14.00">JailsTest</text>
<polyline fill="none" stroke="black" points="3626.5,-177 3715.5,-177 "/>
<polyline fill="none" stroke="black" points="3626.5,-153 3715.5,-153 "/>
<text text-anchor="start" x="3634.5" y="-136.4" font-family="Times,serif" font-size="14.00">testGet()</text>
<text text-anchor="start" x="3634.5" y="-120.4" font-family="Times,serif" font-size="14.00">testClear()</text>
<text text-anchor="start" x="3634.5" y="-104.4" font-family="Times,serif" font-size="14.00">testExport()</text>
<text text-anchor="start" x="3634.5" y="-88.4" font-family="Times,serif" font-size="14.00">testContain()</text>
<text text-anchor="start" x="3634.5" y="-72.4" font-family="Times,serif" font-size="14.00">testLoad()</text>
<text text-anchor="start" x="3634.5" y="-56.4" font-family="Times,serif" font-size="14.00">testAdd()</text>
<text text-anchor="start" x="3634.5" y="-40.4" font-family="Times,serif" font-size="14.00">testIterate()</text>
<text text-anchor="start" x="3634.5" y="-24.4" font-family="Times,serif" font-size="14.00">testInit()</text>
<text text-anchor="start" x="3634.5" y="-8.4" font-family="Times,serif" font-size="14.00">testCreate()</text>
</g>
<!-- 64&#45;&gt;11 -->
<g id="edge20" class="edge"><title>64&#45;&gt;11</title>
<path fill="none" stroke="black" d="M318,-415.086C318,-469.633 318,-563.176 318,-618.738"/>
<polygon fill="none" stroke="black" points="314.5,-618.987 318,-628.987 321.5,-618.987 314.5,-618.987"/>
</g>
</g>
</svg>
