<?xml version="1.0" encoding="UTF-8" standalone="no"?>
<!DOCTYPE svg PUBLIC "-//W3C//DTD SVG 1.1//EN"
 "http://www.w3.org/Graphics/SVG/1.1/DTD/svg11.dtd">
<!-- Generated by graphviz version 2.28.0 (20120201.1532)
 -->
<!-- Title: packages_Pixie Pages: 1 -->
<svg width="1353pt" height="260pt"
 viewBox="0.00 0.00 1353.00 260.00" xmlns="http://www.w3.org/2000/svg" xmlns:xlink="http://www.w3.org/1999/xlink">
<g id="graph1" class="graph" transform="scale(1 1) rotate(0) translate(4 256)">
<title>packages_Pixie</title>
<polygon fill="white" stroke="white" points="-4,5 -4,-256 1350,-256 1350,5 -4,5"/>
<!-- 3 -->
<g id="node1" class="node"><title>3</title>
<polygon fill="none" stroke="black" points="140.5,-36 -0.5,-36 -0.5,-0 140.5,-0 140.5,-36"/>
<text text-anchor="middle" x="70" y="-13.4" font-family="Times,serif" font-size="14.00">tests.lib.test_controller</text>
</g>
<!-- 4 -->
<g id="node2" class="node"><title>4</title>
<polygon fill="none" stroke="black" points="233.5,-36 158.5,-36 158.5,-0 233.5,-0 233.5,-36"/>
<text text-anchor="middle" x="196" y="-13.4" font-family="Times,serif" font-size="14.00">controllers</text>
</g>
<!-- 5 -->
<g id="node3" class="node"><title>5</title>
<polygon fill="none" stroke="black" points="306,-36 252,-36 252,-0 306,-0 306,-36"/>
<text text-anchor="middle" x="279" y="-13.4" font-family="Times,serif" font-size="14.00">tests</text>
</g>
<!-- 6 -->
<g id="node4" class="node"><title>6</title>
<polygon fill="none" stroke="black" points="440,-36 324,-36 324,-0 440,-0 440,-36"/>
<text text-anchor="middle" x="382" y="-13.4" font-family="Times,serif" font-size="14.00">tests.lib.test_puck</text>
</g>
<!-- 46 -->
<g id="node15" class="node"><title>46</title>
<polygon fill="none" stroke="black" points="581,-180 527,-180 527,-144 581,-144 581,-180"/>
<text text-anchor="middle" x="554" y="-157.4" font-family="Times,serif" font-size="14.00">lib.vm</text>
</g>
<!-- 6&#45;&gt;46 -->
<g id="edge4" class="edge"><title>6&#45;&gt;46</title>
<path fill="none" stroke="black" d="M373.272,-36.2548C364.82,-55.6735 355.38,-87.2146 371,-108 388.494,-131.28 468.498,-147.609 516.745,-155.536"/>
<polygon fill="black" stroke="black" points="526.815,-157.144 516.231,-160.01 521.878,-156.355 516.94,-155.567 516.94,-155.567 516.94,-155.567 521.878,-156.355 517.65,-151.123 526.815,-157.144 526.815,-157.144"/>
</g>
<!-- 53 -->
<g id="node17" class="node"><title>53</title>
<polygon fill="none" stroke="black" points="441.5,-108 380.5,-108 380.5,-72 441.5,-72 441.5,-108"/>
<text text-anchor="middle" x="411" y="-85.4" font-family="Times,serif" font-size="14.00">lib.puck</text>
</g>
<!-- 6&#45;&gt;53 -->
<g id="edge2" class="edge"><title>6&#45;&gt;53</title>
<path fill="none" stroke="black" d="M389.169,-36.3034C392.435,-44.1868 396.374,-53.6958 400.002,-62.4536"/>
<polygon fill="black" stroke="black" points="403.914,-71.8957 395.929,-64.3795 402,-67.2764 400.086,-62.6571 400.086,-62.6571 400.086,-62.6571 402,-67.2764 404.244,-60.9347 403.914,-71.8957 403.914,-71.8957"/>
</g>
<!-- 8 -->
<g id="node5" class="node"><title>8</title>
<polygon fill="none" stroke="black" points="1028,-36 974,-36 974,-0 1028,-0 1028,-36"/>
<text text-anchor="middle" x="1001" y="-13.4" font-family="Times,serif" font-size="14.00">lib</text>
</g>
<!-- 9 -->
<g id="node6" class="node"><title>9</title>
<polygon fill="none" stroke="black" points="1105.5,-36 1046.5,-36 1046.5,-0 1105.5,-0 1105.5,-36"/>
<text text-anchor="middle" x="1076" y="-13.4" font-family="Times,serif" font-size="14.00">tests.lib</text>
</g>
<!-- 10 -->
<g id="node7" class="node"><title>10</title>
<polygon fill="none" stroke="black" points="1063.5,-180 976.5,-180 976.5,-144 1063.5,-144 1063.5,-180"/>
<text text-anchor="middle" x="1020" y="-157.4" font-family="Times,serif" font-size="14.00">lib.controller</text>
</g>
<!-- 12 -->
<g id="node8" class="node"><title>12</title>
<polygon fill="none" stroke="black" points="1264.5,-36 1123.5,-36 1123.5,-0 1264.5,-0 1264.5,-36"/>
<text text-anchor="middle" x="1194" y="-13.4" font-family="Times,serif" font-size="14.00">tests.lib.test_interfaces</text>
</g>
<!-- 13 -->
<g id="node9" class="node"><title>13</title>
<polygon fill="none" stroke="black" points="754.5,-180 649.5,-180 649.5,-144 754.5,-144 754.5,-180"/>
<text text-anchor="middle" x="702" y="-157.4" font-family="Times,serif" font-size="14.00">lib.setup_plugin</text>
</g>
<!-- 23 -->
<g id="node10" class="node"><title>23</title>
<polygon fill="none" stroke="black" points="685.5,-252 598.5,-252 598.5,-216 685.5,-216 685.5,-252"/>
<text text-anchor="middle" x="642" y="-229.4" font-family="Times,serif" font-size="14.00">lib.interfaces</text>
</g>
<!-- 13&#45;&gt;23 -->
<g id="edge6" class="edge"><title>13&#45;&gt;23</title>
<path fill="none" stroke="black" d="M687.169,-180.303C679.975,-188.695 671.203,-198.93 663.31,-208.139"/>
<polygon fill="black" stroke="black" points="656.661,-215.896 659.752,-205.375 659.915,-212.099 663.169,-208.303 663.169,-208.303 663.169,-208.303 659.915,-212.099 666.585,-211.232 656.661,-215.896 656.661,-215.896"/>
</g>
<!-- 36 -->
<g id="node12" class="node"><title>36</title>
<polygon fill="none" stroke="black" points="789,-252 733,-252 733,-216 789,-216 789,-252"/>
<text text-anchor="middle" x="761" y="-229.4" font-family="Times,serif" font-size="14.00">lib.jails</text>
</g>
<!-- 13&#45;&gt;36 -->
<g id="edge8" class="edge"><title>13&#45;&gt;36</title>
<path fill="none" stroke="black" d="M716.584,-180.303C723.658,-188.695 732.283,-198.93 740.045,-208.139"/>
<polygon fill="black" stroke="black" points="746.583,-215.896 736.698,-211.15 743.361,-212.073 740.139,-208.249 740.139,-208.249 740.139,-208.249 743.361,-212.073 743.58,-205.349 746.583,-215.896 746.583,-215.896"/>
</g>
<!-- 35 -->
<g id="node11" class="node"><title>35</title>
<polygon fill="none" stroke="black" points="956,-36 902,-36 902,-0 956,-0 956,-36"/>
<text text-anchor="middle" x="929" y="-13.4" font-family="Times,serif" font-size="14.00">pixie</text>
</g>
<!-- 35&#45;&gt;10 -->
<g id="edge14" class="edge"><title>35&#45;&gt;10</title>
<path fill="none" stroke="black" d="M939.977,-36.1285C955.759,-60.7562 984.986,-106.362 1003.41,-135.115"/>
<polygon fill="black" stroke="black" points="1008.98,-143.811 999.8,-137.819 1006.29,-139.601 1003.59,-135.391 1003.59,-135.391 1003.59,-135.391 1006.29,-139.601 1007.38,-132.963 1008.98,-143.811 1008.98,-143.811"/>
</g>
<!-- 35&#45;&gt;13 -->
<g id="edge24" class="edge"><title>35&#45;&gt;13</title>
<path fill="none" stroke="black" d="M901.583,-31.1648C880.842,-40.9184 852.087,-55.6433 829,-72 809.752,-85.6367 808.868,-93.8418 790,-108 775.213,-119.096 757.974,-129.895 742.692,-138.82"/>
<polygon fill="black" stroke="black" points="733.953,-143.845 740.378,-134.959 738.288,-141.352 742.622,-138.86 742.622,-138.86 742.622,-138.86 738.288,-141.352 744.865,-142.76 733.953,-143.845 733.953,-143.845"/>
</g>
<!-- 35&#45;&gt;36 -->
<g id="edge16" class="edge"><title>35&#45;&gt;36</title>
<path fill="none" stroke="black" d="M956.157,-32.9552C959.091,-34.1206 962.075,-35.1685 965,-36 1104.39,-75.6224 1367.31,9.85739 1283,-108 1225.95,-187.754 909.897,-220.858 799.261,-230.112"/>
<polygon fill="black" stroke="black" points="789.211,-230.934 798.811,-225.634 794.195,-230.526 799.178,-230.119 799.178,-230.119 799.178,-230.119 794.195,-230.526 799.545,-234.604 789.211,-230.934 789.211,-230.934"/>
</g>
<!-- 42 -->
<g id="node13" class="node"><title>42</title>
<polygon fill="none" stroke="black" points="1148,-108 996,-108 996,-72 1148,-72 1148,-108"/>
<text text-anchor="middle" x="1072" y="-85.4" font-family="Times,serif" font-size="14.00">controllers.configuration</text>
</g>
<!-- 35&#45;&gt;42 -->
<g id="edge12" class="edge"><title>35&#45;&gt;42</title>
<path fill="none" stroke="black" d="M956.234,-32.3312C976.551,-42.2767 1004.73,-56.0705 1028.2,-67.5589"/>
<polygon fill="black" stroke="black" points="1037.27,-71.9977 1026.31,-71.6428 1032.78,-69.7994 1028.29,-67.6011 1028.29,-67.6011 1028.29,-67.6011 1032.78,-69.7994 1030.26,-63.5593 1037.27,-71.9977 1037.27,-71.9977"/>
</g>
<!-- 35&#45;&gt;46 -->
<g id="edge18" class="edge"><title>35&#45;&gt;46</title>
<path fill="none" stroke="black" d="M901.572,-20.8117C833.843,-25.7187 660.708,-41.0299 613,-72 590.15,-86.8333 574.092,-113.964 564.558,-134.386"/>
<polygon fill="black" stroke="black" points="560.4,-143.789 560.328,-132.823 562.422,-139.216 564.444,-134.643 564.444,-134.643 564.444,-134.643 562.422,-139.216 568.56,-136.463 560.4,-143.789 560.4,-143.789"/>
</g>
<!-- 35&#45;&gt;53 -->
<g id="edge22" class="edge"><title>35&#45;&gt;53</title>
<path fill="none" stroke="black" d="M901.811,-19.2643C828.038,-20.5661 618.397,-28.1584 451,-72 450.9,-72.0263 450.799,-72.0528 450.699,-72.0795"/>
<polygon fill="black" stroke="black" points="441.254,-75.0645 449.433,-67.7602 446.021,-73.5578 450.789,-72.051 450.789,-72.051 450.789,-72.051 446.021,-73.5578 452.145,-76.3418 441.254,-75.0645 441.254,-75.0645"/>
</g>
<!-- 57 -->
<g id="node18" class="node"><title>57</title>
<polygon fill="none" stroke="black" points="1274,-108 1166,-108 1166,-72 1274,-72 1274,-108"/>
<text text-anchor="middle" x="1220" y="-85.4" font-family="Times,serif" font-size="14.00">controllers.setup</text>
</g>
<!-- 35&#45;&gt;57 -->
<g id="edge10" class="edge"><title>35&#45;&gt;57</title>
<path fill="none" stroke="black" d="M956.223,-32.7379C959.145,-33.9456 962.107,-35.0628 965,-36 1044.61,-61.7883 1070.49,-53.3562 1155.91,-71.8781"/>
<polygon fill="black" stroke="black" points="1165.77,-74.078 1155.03,-76.2931 1160.89,-72.9895 1156.01,-71.901 1156.01,-71.901 1156.01,-71.901 1160.89,-72.9895 1156.99,-67.5089 1165.77,-74.078 1165.77,-74.078"/>
</g>
<!-- 63 -->
<g id="node21" class="node"><title>63</title>
<polygon fill="none" stroke="black" points="939.5,-108 838.5,-108 838.5,-72 939.5,-72 939.5,-108"/>
<text text-anchor="middle" x="889" y="-85.4" font-family="Times,serif" font-size="14.00">controllers.root</text>
</g>
<!-- 35&#45;&gt;63 -->
<g id="edge20" class="edge"><title>35&#45;&gt;63</title>
<path fill="none" stroke="black" d="M919.112,-36.3034C914.511,-44.3564 908.94,-54.1055 903.847,-63.0176"/>
<polygon fill="black" stroke="black" points="898.774,-71.8957 899.828,-60.9806 901.255,-67.5544 903.735,-63.2132 903.735,-63.2132 903.735,-63.2132 901.255,-67.5544 907.642,-65.4459 898.774,-71.8957 898.774,-71.8957"/>
</g>
<!-- 42&#45;&gt;10 -->
<g id="edge26" class="edge"><title>42&#45;&gt;10</title>
<path fill="none" stroke="black" d="M1059.15,-108.303C1052.97,-116.611 1045.46,-126.723 1038.68,-135.859"/>
<polygon fill="black" stroke="black" points="1032.71,-143.896 1035.06,-133.185 1035.69,-139.882 1038.67,-135.868 1038.67,-135.868 1038.67,-135.868 1035.69,-139.882 1042.28,-138.552 1032.71,-143.896 1032.71,-143.896"/>
</g>
<!-- 44 -->
<g id="node14" class="node"><title>44</title>
<polygon fill="none" stroke="black" points="566,-108 460,-108 460,-72 566,-72 566,-108"/>
<text text-anchor="middle" x="513" y="-85.4" font-family="Times,serif" font-size="14.00">tests.lib.test_vm</text>
</g>
<!-- 44&#45;&gt;46 -->
<g id="edge28" class="edge"><title>44&#45;&gt;46</title>
<path fill="none" stroke="black" d="M523.135,-108.303C527.852,-116.356 533.562,-126.106 538.782,-135.018"/>
<polygon fill="black" stroke="black" points="543.982,-143.896 535.045,-137.541 541.455,-139.581 538.928,-135.267 538.928,-135.267 538.928,-135.267 541.455,-139.581 542.811,-132.992 543.982,-143.896 543.982,-143.896"/>
</g>
<!-- 46&#45;&gt;23 -->
<g id="edge32" class="edge"><title>46&#45;&gt;23</title>
<path fill="none" stroke="black" d="M575.753,-180.303C586.836,-189.119 600.474,-199.968 612.49,-209.526"/>
<polygon fill="black" stroke="black" points="620.497,-215.896 609.87,-213.192 616.584,-212.783 612.671,-209.67 612.671,-209.67 612.671,-209.67 616.584,-212.783 615.473,-206.149 620.497,-215.896 620.497,-215.896"/>
</g>
<!-- 46&#45;&gt;36 -->
<g id="edge30" class="edge"><title>46&#45;&gt;36</title>
<path fill="none" stroke="black" d="M581.062,-172.151C617.407,-184.442 682.168,-206.342 723.28,-220.245"/>
<polygon fill="black" stroke="black" points="732.938,-223.511 722.024,-224.57 728.202,-221.909 723.465,-220.307 723.465,-220.307 723.465,-220.307 728.202,-221.909 724.907,-216.044 732.938,-223.511 732.938,-223.511"/>
</g>
<!-- 48 -->
<g id="node16" class="node"><title>48</title>
<polygon fill="none" stroke="black" points="781.5,-108 622.5,-108 622.5,-72 781.5,-72 781.5,-108"/>
<text text-anchor="middle" x="702" y="-85.4" font-family="Times,serif" font-size="14.00">tests.lib.test_setup_plugin</text>
</g>
<!-- 48&#45;&gt;13 -->
<g id="edge34" class="edge"><title>48&#45;&gt;13</title>
<path fill="none" stroke="black" d="M702,-108.303C702,-116.017 702,-125.288 702,-133.888"/>
<polygon fill="black" stroke="black" points="702,-143.896 697.5,-133.896 702,-138.896 702,-133.896 702,-133.896 702,-133.896 702,-138.896 706.5,-133.896 702,-143.896 702,-143.896"/>
</g>
<!-- 53&#45;&gt;46 -->
<g id="edge36" class="edge"><title>53&#45;&gt;46</title>
<path fill="none" stroke="black" d="M441.327,-105.845C463.619,-116.757 494.011,-131.635 517.613,-143.188"/>
<polygon fill="black" stroke="black" points="526.618,-147.596 515.658,-147.242 522.128,-145.398 517.637,-143.2 517.637,-143.2 517.637,-143.2 522.128,-145.398 519.615,-139.158 526.618,-147.596 526.618,-147.596"/>
</g>
<!-- 57&#45;&gt;10 -->
<g id="edge38" class="edge"><title>57&#45;&gt;10</title>
<path fill="none" stroke="black" d="M1171.33,-108.034C1141.59,-118.442 1103.55,-131.757 1073.05,-142.433"/>
<polygon fill="black" stroke="black" points="1063.43,-145.799 1071.38,-138.248 1068.15,-144.148 1072.87,-142.496 1072.87,-142.496 1072.87,-142.496 1068.15,-144.148 1074.36,-146.743 1063.43,-145.799 1063.43,-145.799"/>
</g>
<!-- 59 -->
<g id="node19" class="node"><title>59</title>
<polygon fill="none" stroke="black" points="883,-180 773,-180 773,-144 883,-144 883,-180"/>
<text text-anchor="middle" x="828" y="-157.4" font-family="Times,serif" font-size="14.00">tests.lib.test_jails</text>
</g>
<!-- 59&#45;&gt;36 -->
<g id="edge40" class="edge"><title>59&#45;&gt;36</title>
<path fill="none" stroke="black" d="M811.438,-180.303C803.325,-188.78 793.412,-199.136 784.529,-208.417"/>
<polygon fill="black" stroke="black" points="777.371,-215.896 781.035,-205.56 780.829,-212.284 784.286,-208.671 784.286,-208.671 784.286,-208.671 780.829,-212.284 787.537,-211.783 777.371,-215.896 777.371,-215.896"/>
</g>
<!-- 62 -->
<g id="node20" class="node"><title>62</title>
<polygon fill="none" stroke="black" points="1345.5,-36 1282.5,-36 1282.5,-0 1345.5,-0 1345.5,-36"/>
<text text-anchor="middle" x="1314" y="-13.4" font-family="Times,serif" font-size="14.00">__init__</text>
</g>
<!-- 63&#45;&gt;10 -->
<g id="edge42" class="edge"><title>63&#45;&gt;10</title>
<path fill="none" stroke="black" d="M921.046,-108.124C938.492,-117.446 960.265,-129.081 978.943,-139.061"/>
<polygon fill="black" stroke="black" points="987.831,-143.81 976.89,-143.066 983.421,-141.454 979.011,-139.097 979.011,-139.097 979.011,-139.097 983.421,-141.454 981.132,-135.128 987.831,-143.81 987.831,-143.81"/>
</g>
</g>
</svg>
